<?xml version="1.0" encoding="utf-8"?>
<!-- Generator: Adobe Illustrator 16.0.3, SVG Export Plug-In . SVG Version: 6.00 Build 0)  -->
<!DOCTYPE svg PUBLIC "-//W3C//DTD SVG 1.1//EN" "http://www.w3.org/Graphics/SVG/1.1/DTD/svg11.dtd">
<svg version="1.1" xmlns="http://www.w3.org/2000/svg" xmlns:xlink="http://www.w3.org/1999/xlink" x="0px" y="0px" width="95.3px"
	 height="116.6px" viewBox="0 0 95.3 116.6" style="enable-background:new 0 0 95.3 116.6;" xml:space="preserve">
<style type="text/css">
<![CDATA[
	.st0{fill-rule:evenodd;clip-rule:evenodd;fill:#D7D7D7;}
	.st1{fill-rule:evenodd;clip-rule:evenodd;fill:#D8D8D8;}
	.st2{fill-rule:evenodd;clip-rule:evenodd;fill:#D9D9D8;}
	.st3{fill:#EAF2C1;}
	.st4{fill:#EF6644;}
	.st5{display:inline;fill:#FFFFFF;}
	.st6{fill:none;stroke:#FFFFFF;stroke-miterlimit:10;stroke-dasharray:5,5;}
	.st7{fill:none;stroke:#000000;stroke-miterlimit:10;}
	.st8{fill:#FF5E3E;}
	.st9{fill:#FFFFFF;}
	.st10{fill:none;stroke:#FFFFFF;stroke-width:2;stroke-linecap:round;stroke-miterlimit:10;stroke-dasharray:2,6;}
	.st11{display:inline;}
	.st12{opacity:0.4;fill:#C1563B;}
	.st13{fill-rule:evenodd;clip-rule:evenodd;fill:#FD0000;}
	.st14{fill-rule:evenodd;clip-rule:evenodd;fill:#FDFDFD;}
	.st15{display:none;}
]]>
</style>
<g id="Layer_1">
</g>
<g id="Layer_2">
</g>
<g id="Navigation">
</g>
<g id="Layer_3">
</g>
<g id="Typography">
</g>
<g id="brandoutline">
	<g>
		<path class="st9" d="M61.2,67.7c-6-9.5-1.6-22.5-1.6-22.5c4.3-8.4-1.4-12.4-1.4-12.4C43.1,26.4,36.4,35,36.4,35
			c-3.4,4-9.6,3.1-9.6,3.1c-11.5-4-19.1,1-19.1,1c-0.7,3.3,1,6.4,1,6.4C23,61.9,21.1,69.3,21.1,69.3c-0.2,0.9-0.4,1.8-0.4,2.7
			c0.5-0.5,1-1,1.5-1.5c0,0,2.9-11.1,2.1-20.6l1.3-1.8c0,0,1,15.5-2.1,23.4c0,0-10.5,9.5-3.1,15.1c0,0,5.7,6.5,9.5,0.3
			c0,0,3.1-2.4,5.2-1.5c0,0,5,0.3,5-6.4c0,0-1.7-6.7-1-7.7c0,0-4-11.7-2.1-25.6l0.4,0.7c0,0-0.1,12.3,2.8,24.6c0,0-1,1.5,0.6,7.5
			c0.9,8.1-5.8,7.9-5.8,7.9c0,0-0.4-1.6-4.3,0.8c0,0-1.7,3.1-4.7,3.6c8.9,12.8,22.8,5.8,22.8,5.8c7.4,0,10.8-4.5,10.8-4.5
			C68.8,79.6,61.2,67.7,61.2,67.7z M26.5,45.2c0,0-9.3,3.9-13-1.7c-1.5-2.2,1.8-3.9,4.7-4.6c0,0,4.5-1,8.1,3.8
			C27,43.5,26.5,45.2,26.5,45.2z M53.7,40.5c0,0-0.2,1.5-14.2,3.9c0,0-1-2.1-1.1-2.8c-0.2-1.8,0.6-3.4,4.2-6c0,0,3.4-2,7.6-1.4
			C50.3,34.2,58.2,36.3,53.7,40.5z"/>
		<path class="st9" d="M91.6,25.2c2.1-6-0.5-7.7-0.5-7.7c-1.3-1.5-0.9-3.4-0.9-3.4c-0.5-2-6.8-3-6.8-3c-12.3-9-30.8-9.2-30.8-9.2
			C40.3-1.3,32.1,4.4,32.1,4.4c-6.8,4.3-10.5,4.9-10.5,4.9C11.8,12.5,5.1,21.5,5.1,21.5C-3,30.7,2.7,36.3,2.7,36.3l-0.9,5.6
			c1.4,18.1,11,30.8,11,30.8c2.1,1.8,3.3,9.6,3.3,9.6c-1.5,0.6-4.2-1-4.2-1c0.5,1.1,3.1,2.2,3.1,2.2c-0.4,0.2-6.4-0.3-6.4-0.3
			c0.3,0.3,6,1.1,6,1.1c-0.6,0.3-2.5,0.1-2.5,0.1c1.1,0.7,3.6,0.5,3.6,0.5C15.1,85.6,7.5,85,7.5,85l10.2,1.5
			c-0.9,0.3-7.8-0.1-7.8-0.1c2.4,0.9,8.8,1.6,8.8,1.6c1.6,3.3,6,9.1,6,9.1c9.5,10.3,21.9,12.5,21.9,12.5c1,1.1,1.6,5.2,1.6,5.2
			l0.7-4.7l0.1,3.8l0.8-1.4l0.1,3l1.1-4.1v2.6l0.8-1.8c1.7-4.6,3.4-6,3.4-6c13.8-9.3,18.1-17,18.1-17C85,73.4,91.6,50.8,91.6,50.8
			C97.9,32.2,91.6,25.2,91.6,25.2z M61,92.7c0,0-2.2,4.5-12,5.8c0,0-14.4,7.8-24.1-6.6c0,0-12.7-6.1-6.1-18.4c0,0,4.4-7.2-11.3-27.1
			c0,0-4.4-6.9,0-9.3c0,0,10.5-4.9,18-1c0,0,3.9,2.1,9.1-2c0,0,9.5-11.6,24-3.4c0,0,7.9,3.8,2.7,15.1c0,0-6.6,11.7,2.8,22.7
			C64.1,68.5,71.2,75.2,61,92.7z"/>
	</g>
</g>
<g id="More_About">
</g>
</svg>
